<svg height="25" viewBox="0 0 199 25" width="199" xmlns="http://www.w3.org/2000/svg" xmlns:xlink="http://www.w3.org/1999/xlink"><filter id="a"><feColorMatrix in="SourceGraphic" type="matrix" values="0 0 0 0 0.988235 0 0 0 0 0.862745 0 0 0 0 0.823529 0 0 0 1.000000 0"/></filter><g fill="none" fill-rule="evenodd" filter="url(#a)" transform="translate(2.368954 -87.477932)"><g fill="#000" transform="translate(0 89.95)"><g transform="translate(45.1288)"><path d="m9.525 19.05c-5.252 0-9.525-4.273-9.525-9.525s4.273-9.525 9.525-9.525 9.525 4.273 9.525 9.525-4.273 9.525-9.525 9.525m0-18.412c-4.901 0-8.887 3.986-8.887 8.887s3.986 8.888 8.887 8.888 8.888-3.987 8.888-8.888-3.987-8.887-8.888-8.887"/><path d="m11.9077 3.8708c-1.061 0-1.912.461-2.411 1.271-.498-.81-1.349-1.271-2.41-1.271-1.872 0-2.991 1.337-2.991 3.577v6.313h1.159v-6.313c0-1.561.668-2.456 1.832-2.456s1.832.895 1.832 2.456v2.916h1.158v-2.916c0-1.561.668-2.456 1.831-2.456 1.164 0 1.832.895 1.832 2.456v6.313h1.158v-6.313c0-2.24-1.118-3.577-2.99-3.577"/></g><path d="m1.27 6.1704v2.475h3.576v1.23h-3.576v2.901h4.068v1.232h-5.338v-9.069h5.338v1.231z"/><path d="m13.0773 12.7768v1.231h-5.079v-9.069h1.27v7.838z"/><path d="m20.8148 12.7768v1.231h-5.079v-9.069h1.27v7.838z"/><path d="m24.7443 6.1704v2.475h3.576v1.23h-3.576v2.901h4.068v1.232h-5.338v-9.069h5.338v1.231z"/><path d="m38.1213 6.1704v2.475h3.576v1.23h-3.576v2.901h4.068v1.232h-5.338v-9.069h5.338v1.231z"/><path d="m72.2235 11.3908c0 1.568-1.14 2.617-2.604 2.617h-3.253v-9.069h2.644c1.58 0 2.513.817 2.513 2.151 0 1.102-.518 1.684-.958 1.97 1.087.427 1.658 1.256 1.658 2.331zm-4.587-5.286v2.41h1.504c.634 0 1.114-.647 1.114-1.243 0-.662-.351-1.167-1.244-1.167zm3.317 5.092c0-.738-.505-1.425-1.452-1.425h-1.865v3.07h1.97c.777 0 1.347-.725 1.347-1.645z"/><path d="m80.6099 11.8054h-3.964l-.843 2.203h-1.308l3.498-9.069h1.269l3.498 9.069h-1.308zm-.428-1.178-1.554-3.991-1.555 3.991z"/><path d="m90.1766 12.7768v1.231h-5.079v-9.069h1.27v7.838z"/><path d="m97.9154 12.7768v1.231h-5.079v-9.069h1.27v7.838z"/><path d="m101.8447 6.1704v2.475h3.576v1.23h-3.576v2.901h4.068v1.232h-5.338v-9.069h5.338v1.231z"/><path d="m119.6786 11.8054h-3.964l-.843 2.203h-1.308l3.498-9.069h1.269l3.498 9.069h-1.308zm-.428-1.178-1.554-3.991-1.555 3.991z"/><path d="m125.2548 4.9392v5.998c0 1.27.868 1.944 1.969 1.944 1.088 0 1.917-.674 1.917-1.944v-5.998h1.27v5.998c0 2.178-1.528 3.174-3.187 3.174-1.658 0-3.239-.996-3.239-3.174v-5.998z"/><path d="m139.2256 6.1704h-2.54v7.838h-1.269v-7.838h-2.539v-1.231h6.348z"/><path d="m141.6909 4.9392h2.928c1.607 0 2.915 1.205 2.915 2.811 0 1.543-1.127 2.605-2.215 2.812l2.008 3.446h-1.373l-1.879-3.329h-1.114v3.329h-1.27zm2.928 4.599c.985 0 1.646-.802 1.646-1.788 0-.984-.661-1.671-1.646-1.671h-1.658v3.459z"/><path d="m151.4644 6.1704v2.475h3.576v1.23h-3.576v2.901h4.068v1.232h-5.338v-9.069h5.338v1.231z"/><path d="m167.4416 4.9392v9.069h-1.269v-6.219l-2.811 6.219h-1.089l-2.811-6.219v6.219h-1.27v-9.069h1.27l3.355 7.242 3.356-7.242z"/><path d="m171.4386 6.1704v2.475h3.576v1.23h-3.576v2.901h4.068v1.232h-5.338v-9.069h5.338v1.231z"/><path d="m185.5002 4.9392v9.069h-1.27l-4.793-6.776v6.776h-1.27v-9.069h1.27l4.793 6.789v-6.789z"/><path d="m194.3148 6.1704h-2.539v7.838h-1.27v-7.838h-2.539v-1.231h6.348z"/></g></g></svg>