<svg height="707" viewBox="0 0 1454 707" width="1454" xmlns="http://www.w3.org/2000/svg" xmlns:xlink="http://www.w3.org/1999/xlink"><mask id="a" fill="#fff"><path d="m0 0h1265.90244v278.586633h-1265.90244z" fill="#fff" fill-rule="evenodd"/></mask><mask id="b" fill="#fff"><path d="m0 0h836.896293v195.196562h-836.896293z" fill="#fff" fill-rule="evenodd"/></mask><mask id="c" fill="#fff"><path d="m0 0h1348.1733v249.106966h-1348.1733z" fill="#fff" fill-rule="evenodd"/></mask><mask id="d" fill="#fff"><path d="m0 0h1080.41491v193.258301h-1080.41491z" fill="#fff" fill-rule="evenodd"/></mask><mask id="e" fill="#fff"><path d="m0 0h1452.63988v278.27029h-1452.63988z" fill="#fff" fill-rule="evenodd"/></mask><mask id="f" fill="#fff"><path d="m0 0h1084.91796v215.508682h-1084.91796z" fill="#fff" fill-rule="evenodd"/></mask><mask id="g" fill="#fff"><path d="m0 0h1216.25154v211.848345h-1216.25154z" fill="#fff" fill-rule="evenodd"/></mask><mask id="h" fill="#fff"><path d="m0 0h363.23474v162.418222h-363.23474z" fill="#fff" fill-rule="evenodd"/></mask><mask id="i" fill="#fff"><path d="m0 0h1216.2491v212.985054h-1216.2491z" fill="#fff" fill-rule="evenodd"/></mask><mask id="j" fill="#fff"><path d="m0 0h615.744118v228.62355h-615.744118z" fill="#fff" fill-rule="evenodd"/></mask><g fill="none" fill-rule="evenodd" transform="translate(.915771)"><g transform="translate(0 125.434263)"><path d="m0 30.4758379c77.1422065-25.5212621 159.612224-29.45793569 240.861945-30.29505847 124.365205-1.2764292 248.801188 4.20757922 372.570889 16.41785697 109.038293 10.758126 217.871576 26.7513201 327.434596 26.8098943 121.95878.0683365 243.38796-19.6247938 365.32966-17.594222 6.67257.1098266 13.75029.4100194 19.28799 4.1319209 3.94643 2.6529227 6.64573 6.7506753 9.14001 10.7947349 21.20386 34.3610834 35.42274 73.0127265 41.54375 112.9261545 1.41066 9.191266 2.3332 18.931666-1.27887 27.503022-4.46629 10.599488-14.9169 17.284267-25.09172 22.646246-41.26308 21.750549-87.29263 32.659991-133.09764 41.475407-276.130932 53.151195-561.741116 37.228778-839.019123-9.586643-105.965588-17.894414-211.440618-40.323447-313.3572655-74.416066-20.0445755-6.704304-41.3631395-14.941299-52.8949329-32.65511-15.25125441-23.424794-8.02222329-54.2909509-.2782274-81.1520976" fill="#ca806f" mask="url(#a)" transform="translate(186.737442 206.061266)"/><path d="m926.563125 24.2830221c-65.119854-5.3278106-227.941455-67.682475-374.396451 31.1687901-239.263358 161.4914788-404.513347 19.1928092-552.166674 108.8528078 0 0 272.921551 78.611442 541.918631-14.970586 204.765601-71.2384166 366.99902-59.3088069 397.63088-53.3830515 30.634301 5.9281965-12.986386-71.6679604-12.986386-71.6679604" fill="#000" mask="url(#b)" transform="translate(615.743586 211.713003)"/><path d="m1136.35537 272.311534c5.55234 0 5.56211-8.62749 0-8.62749-5.54991 0-5.56211 8.62749 0 8.62749" fill="#000"/><path d="m-13.7790898 15.5168855c287.6139098-50.0736095 579.1156818 33.1115007 867.4349228 78.936041 132.704705 21.0915895 266.656557 34.3025095 400.920797 39.5448995 32.46962 1.269107 93.59667-6.884908 93.59667 21.521133 0 10.467695-48.63854 14.850997-74.09391 16.818114-47.27425 3.651124-94.62904 6.230829-142.01556 7.741555-41.95864 1.332563-87.21941-3.314323-127.92847 5.554786-42.57611 9.274246-90.741177 7.043546-134.110482 6.660373-45.580481-.400257-91.117032-2.967759-136.558399-6.413874-157.008113-11.912525-314.914363-34.937063-472.435-17.513682-10.701993 1.183687-25.05755 8.776366-20.137318 18.350805 2.203854 4.293 7.458446 5.842775 12.151703 6.97521 52.482473 12.63494 161.628152 12.078485 157.452301 37.907262-10.040593 11.519591-26.739117 14.013875-41.970847 15.214646-53.200007 4.195376-106.675801 1.801156-159.988075-.600386-99.98614-4.498009-199.96739861-8.99846-299.9535387-13.496469" fill="#f5e6db" mask="url(#c)" transform="translate(0 88.433393)"/><path d="m1127.90759 17.2050783c-69.77406-.6052666-134.491216-13.4403357-204.265278-13.97726577-120.240606-.91766229-475.209952-16.69364373-364.800047 30.93693397 74.467318 32.1230613-230.992194 42.5419451-336.364719 49.0387989-85.457301 5.271677-69.937581 24.1520906-155.4436938 29.0064266-72.78331061 4.134361-66.92101056 22.011692-66.92101056 22.011692 0 30.893003 470.58747236-.078099 704.74511336 20.649842 17.962751 1.591265 36.16468 3.453436 52.977913 9.967374 5.679256 2.198973 11.170586 4.922673 17.032886 6.570072 8.197946 2.303918 23.688378 15.11214 57.903026 18.179964 75.033536 6.723828 150.655254 1.954913 225.9841 2.93115 40.5309.527167 48.98999-14.638666 88.4153-24.059348" fill="#fefefe" mask="url(#d)" transform="translate(372.224971)"/><g fill="#fbd4c8"><path d="m460.638402 96.461873c-23.73963.5419953-47.445092 2.2528497-71.009 5.176678-10.975339 1.36185-21.975084 2.85061-32.845477 4.890945-8.634811 1.618112-17.447786 3.878099-24.957485 8.603084-5.867182 3.690174-14.094414 11.058318-12.398204 18.895057.788311 3.653565 4.000129 5.82325 7.189982 7.280283 4.661529 2.128196 9.598845 3.773154 14.480028 5.313167 21.264871 6.716507 43.503538 9.57688 65.617734 11.812462 47.545158 4.807964 95.263597 7.944124 142.99912 10.067438 47.881958 2.130636 95.802966 3.192294 143.728856 3.685293 47.942973.492999 95.893268.419782 143.838682.283109 6.013617-.019525 12.024793-.036609 18.040851-.053693.554014 0 .556454-.86397 0-.861529-46.351708.139114-92.705857.280668-139.057565-.036609-46.339505-.314836-92.681451-1.086063-138.994109-2.76519-46.285812-1.681567-92.542337-4.273475-138.691476-8.227233-22.477845-1.923186-45.102125-3.697495-67.340792-7.595119-10.589725-1.862172-21.098911-4.268594-31.329869-7.59512-4.971485-1.613231-10.377394-3.187412-14.919334-5.82081-5.930637-3.436353-5.752474-9.532949-2.213616-14.772899 10.721517-15.876046 34.22685-17.625949 51.39885-20.14708 23.105077-3.394862 46.383436-5.6255628 69.713047-6.6994229 5.581632-.2562621 11.163264-.441747 16.749777-.5686578.554015-.0146435.556455-.8786128 0-.8641533"/><path d="m454.714843 102.868365c-16.901094 1.566859-33.714326 4.029416-50.344515 7.416957-8.500579 1.730379-16.949906 3.697495-25.338217 5.901349-4.12704 1.086063-8.241877 2.225819-12.337189 3.424149-3.248427.94939-6.665255 1.759667-9.684266 3.336289-5.130123 2.677328-7.011818 8.095441-3.892743 13.162108 3.570585 5.803726 10.760567 6.799487 16.96455 7.504818 17.572256 2.001285 35.166478 3.836609 52.768022 5.559667 35.632631 3.485164 71.316515 6.435839 107.039448 8.854464 35.578939 2.403983 71.192046 4.280797 106.824677 5.625563 35.637513 1.342325 71.292109 2.155042 106.949147 2.43327 4.41991.031727 8.844702.058574 13.264613.078104.556455.002435.558895-.859094 0-.863975-34.375727-.143995-68.749013-.776108-103.105216-1.908542-34.358643-1.129994-68.697761-2.755428-103.010032-4.873861-34.168277-2.111111-68.307267-4.712781-102.399885-7.80257-17.189084-1.554656-34.365965-3.238664-51.533083-5.042261-8.510342-.895697-17.018242-1.823122-25.523703-2.777393-7.048427-.795633-17.01092-1.915864-18.797433-10.4018-1.862171-8.842262 10.326141-10.897239 16.34952-12.627618 7.939243-2.281953 15.937061-4.354015 23.98613-6.208864 16.327556-3.765833 32.86012-6.653052 49.500071-8.629931 4.100193-.485678 8.207708-.915222 12.320104-1.295954.549133-.051252.554015-.915222 0-.863969"/><path d="m434.603396 91.4778817c-61.471171 5.1008356-124.326156 10.3700723-182.133999 33.5288423-8.322416 3.333847-24.857422 8.063713-25.391911 19.305076-.571098 11.907644 17.987157 15.910214 26.404756 18.41426 29.84599 8.878871 61.283245 9.662301 92.166486 10.933849 66.886842 2.755427 133.224551 11.634298 199.737983 18.697369 33.548367 3.560823 67.169951 6.611562 100.884278 8.027105 33.614262 1.415542 67.204119.820038 100.779332-1.173925 67.272456-4.000129 134.325258-12.529995 201.800283-12.420168 8.295569.014643 16.591139.1684 24.884268.461271.554014.019525.554014-.842004 0-.863969-65.258968-2.296596-130.261674 4.886064-195.235093 9.806295-32.616061 2.469879-65.305339 4.346693-98.026345 4.16609-32.276819-.183045-64.514588-2.198973-96.652293-5.07643-64.636617-5.784201-128.924229-15.034042-193.648708-19.910343-31.015033-2.335646-62.235075-2.296596-93.181772-5.425434-15.512397-1.5693-30.978424-4.158768-45.875792-8.847143-6.721389-2.115993-15.192681-4.217342-20.215417-9.481697-6.347978-6.657933-1.078742-14.167632 5.227746-18.170202 6.218626-3.943995 13.506232-6.455363 20.344768-9.093642 6.919076-2.672448 13.935776-5.095955 21.018372-7.30469 14.399488-4.483366 29.069881-8.063713 43.862305-10.985101 30.007068-5.923315 60.465646-9.1546573 90.90714-11.8295452 7.446244-.6540785 14.894928-1.2764292 22.343613-1.8938988.549133-.0463712.554014-.9078999 0-.8639693"/><path d="m389.335554 89.6325507c-82.68967-3.8097628-165.91627 7.0630709-244.823024 32.1059773-9.889276 3.1386-19.705333 6.496854-29.443292 10.07476-8.395634 3.084908-17.1183069 5.957483-25.0965996 10.047914-5.5108549 2.821324-11.0412345 6.872705-12.7520889 13.140143-1.5595378 5.713424.6272319 11.234042 4.4394353 15.517279 4.6444451 5.215543 11.0754029 8.729995 17.4990389 11.263328 9.7086713 3.831729 19.7907543 6.821453 29.8923613 9.423123 20.471679 5.271677 41.372902 8.605525 62.274125 11.619655 86.997313 12.547079 174.382681 23.066027 262.10485 28.889278 87.841759 5.833013 176.135026 6.809249 263.935294-.256262 43.283885-3.482724 86.182157-9.537831 129.109715-15.937061 43.815934-6.531022 87.829556-12.825307 132.189741-13.701479 10.924086-.214772 21.84573-.08298 32.76006.410019.55401.024406.55401-.837122 0-.863969-85.454864-3.851253-169.413642 16.178679-253.889825 25.421198-84.490827 9.2474-169.701628 10.577522-254.565865 6.814131-85.777018-3.802441-171.244081-12.75697-256.337733-24.015418-41.421714-5.479127-83.80258-9.70379-124.130909-21.037896-9.515865-2.672447-19.488121-5.440078-28.3303827-9.930765-7.1728975-3.641362-15.5807342-9.584202-16.5105994-18.258063-1.0494542-9.78433 7.8538224-15.636868 15.6637143-19.148879 8.9838158-4.036737 18.3947358-7.314451 27.6641008-10.626334 76.490569-27.339502 157.73785-41.2289067 238.968047-40.8506151 9.798973.0439307 19.593066.3099551 29.379836.7639051.556455.0244059.554015-.8371228 0-.8639693"/><path d="m949.580585 192.881761c-72.619791 7.949006-145.615433 11.84907-218.623278 13.808865-73.024929 1.959795-146.091349 2.130636-219.135802 2.347849-72.512405.209891-145.132196-.2465-217.437151-6.296725-18.314196-1.530251-36.601546-3.421709-54.832762-5.745152-17.58446-2.242903-35.205528-4.732306-52.416578-9.064356-8.400514-2.115992-16.72049-4.656648-24.772-7.866025-3.809763-1.520488-8.271164-3.197175-10.672705-6.765319-2.677329-3.980604-2.084265-8.83494-.058575-12.954658 3.485165-7.09968 10.074761-11.944253 16.598461-16.063971 6.901992-4.361337 14.318949-7.851382 21.950677-10.741042 14.826592-5.618241 30.370717-9.076559 45.795253-12.598332 17.91394-4.095312 35.87425-7.973411 53.866289-11.702635 35.473993-7.346179 71.070015-14.099295 106.685563-20.7303812 8.773925-1.6376367 17.550291-3.2606299 26.326657-4.8885042.544252-.1025048.312395-.9347464-.229416-.8346822-36.911501 6.8458583-73.825443 13.689276-110.634439 21.0647426-18.275147 3.660887-36.521007 7.456006-54.727817 11.443932-17.167119 3.760951-34.458707 7.351061-51.367123 12.185872-14.746052 4.21246-29.345669 9.769687-41.970847 18.636354-7.978292 5.603598-20.879257 18.231217-12.273733 28.537833 4.070906 4.876301 11.714838 6.831215 17.450227 8.827618 8.427362 2.931151 17.057292 5.24239 25.770203 7.150933 17.045088 3.738985 34.405014 5.998973 51.716127 8.100322 74.364814 9.027747 149.369062 10.955814 224.212232 11.180348 75.365456.224535 150.779724-.112267 226.130536-1.579062 75.13116-1.459474 150.281844-4.578549 225.105489-11.758769 9.186385-.881053 18.367889-1.828003 27.544512-2.831086.544252-.061014.549133-.924984 0-.863969"/></g><path d="m-61.3686656 14.6115145c190.1757466-14.85343801 381.7841216 3.719461 569.2825396 38.8102812 131.408752 24.5913968 263.308062 57.4515163 396.803519 50.2542133 119.686597-6.4504826 234.943507-44.8287791 351.440247-73.0273698 116.49186-28.19859063 240.22251-46.1296141 355.1109-11.9686592 6.71895 2.0012848 13.70392 4.3662177 18.47284 9.5061027 4.56146 4.9177913 6.44804 11.6782289 8.14913 18.1677609 14.89981 56.7779134 27.17843 114.2440734 36.78703 172.1568624 2.00861 12.100451 3.82441 24.925758-.7761 36.296472-5.19114 12.830188-17.53077 21.2185-29.7801 27.65922-47.45241 24.942842-102.07772 31.874121-155.4681 36.686967-117.02146 10.545794-234.62379 12.891203-352.11873 13.733207-365.358945 2.623635-730.654432-9.183945-1095.8327707-21.003728-61.019661-1.976879-122.2833812-3.978164-182.4146673-14.543483-12.666668-2.225819-26.848943-5.94284-32.989471-17.242777-4.344252-7.995377-3.397303-17.704048-2.233141-26.729355 9.335261-72.363529 25.123446-143.894816 47.115613-213.4663085" fill="#debaa2" mask="url(#e)" transform="translate(0 301.579164)"/><path d="m0 148.241352c139.130782 23.90559 282.359317 23.761595 421.441287-.429545 132.402073-23.029418 259.998621-67.4140095 389.964983-101.6164545 129.966363-34.2048856 265.40697-58.3569761 398.49729-39.71574051 7.251 1.01528594 15.16339 2.52601189 19.8054 8.19062401 4.28812 5.2350681 4.58099 12.5739259 4.67617 19.3416853.37829 27.4566509.75414 54.9108612 1.13488 82.3675117.30019 21.694416-.15864 45.563397-14.45563 61.883631-9.88439 11.282853-26.13141 54.015164-40.4528 58.469243-55.05241 17.113426-111.10059-12.237124-168.54722-7.39011-107.15416 9.044831-214.881855 7.770842-322.409422 6.487091-185.360461-2.213616-370.740446-4.422351-556.003283-10.885036-46.3053367-1.613231-101.4822225-8.959411-121.836753-50.578812" fill="#f0ac95" mask="url(#f)" transform="translate(367.721923 364.340772)"/><path d="m7.83429773 20.9753213c84.72756387-30.78073618 179.03688927-24.4010308 266.35392027-1.9866413 87.31459 22.411949 169.821216 60.0483058 254.17781 91.839447 219.365218 82.672586 453.459404 126.088263 687.885512 127.572142-39.00797 15.578294-81.74028 18.458191-123.65744 21.081827-163.216973 10.216314-326.592588 19.248942-490.121961 20.132437-207.276969 1.125112-423.916047-13.515995-602.472139-118.783574" fill="#fbd4c8" mask="url(#g)" transform="translate(224.738667 368.001109)"/><path d="m1028.07171 410.932232c-31.471427-.734617-63.279652 1.989082-94.348378 6.916636-14.575211 2.31368-29.179709 5.156969-43.26192 9.633013-8.832499 2.80668-19.380735 6.243033-25.853182 13.284138-2.101349 2.284394-3.492486 4.976366-3.509571 8.119847-.004881 1.454592-.226975 2.850611.466153 4.217342.722415 1.422864 2.047656 2.440591 3.421709 3.192293 4.402827 2.406423 9.801414 3.05562 14.702122 3.658446 7.253437.898138 14.57521 1.227618 21.875018 1.52781 7.873348.324599 15.754017.541812 23.624923.985999 6.47977.368529 12.83751 1.259345 19.27823 1.94027 6.797047.719975 13.794222.695569 20.420427 2.555299 1.593706.444188 5.518176 1.48388 5.222865 3.821966-.251381 2.006166-3.692615 3.023892-5.220425 3.546179-5.264355 1.796275-11.041234 2.133077-16.188441 4.234426-4.349134 1.77675-6.499295 7.607322-4.08799 11.666026 2.965318 4.993449 9.70379 7.441362 14.94618 9.049712 7.988055 2.457675 16.361723 2.640719 24.637768 3.30456 50.393332 4.04406 100.876952 6.960566 151.399632 8.75196 25.13321.890816 50.29082 1.637637 75.43868 1.806038 24.12036.163519 48.44573-.973796 71.6704-8.041748 5.4718-1.666924 10.85331-3.626719 16.1201-5.857419 4.41503-1.869493 8.8081-3.92203 12.54708-6.972769 5.06423-4.134362 8.72511-10.975339 7.42916-17.652796-2.18433-11.258448-16.70829-15.915096-26.251-18.36789-14.89004-3.831728-30.28529-4.210019-45.5756-4.50289-11.66602-.224535-23.37354-.378292-34.96391-1.879256-11.93937-1.542453-23.29788-4.851895-34.20488-9.940528-10.1553-4.739628-19.90791-10.355428-30.39757-14.365319-10.91676-4.170971-22.45832-6.369943-34.0194-7.829417-22.56082-2.84817-45.39987-4.153886-68.08029-5.745152-5.73539-.402697-11.48786-.903018-17.23789-1.056776-1.3887-.036608-1.38626 2.120874 0 2.157483 16.22505.431985 32.49647 2.133077 48.66538 3.431471 23.1661 1.85729 47.34015 2.633398 69.33964 10.836225 10.47014 3.904946 20.17881 9.518306 30.27309 14.257934 9.99667 4.698138 20.34233 8.04907 31.26642 9.78433 21.83841 3.463199 44.02826 1.557097 65.96918 3.721902 11.00462 1.083622 22.75119 3.187412 32.60386 8.42492 4.45163 2.369814 9.08632 5.811048 10.38227 10.960695 1.91586 7.614645-3.80976 14.689919-9.86975 18.443548-4.65421 2.882338-9.86975 4.908029-14.98035 6.819012-5.26924 1.971998-10.64098 3.670649-16.08349 5.086192-11.68312 3.031214-23.66886 4.66397-35.70097 5.44984-24.02518 1.571741-48.26269.483237-72.3074-.139114-49.18523-1.278869-98.34118-3.626718-147.42391-7.041105-12.30546-.854207-24.610921-1.779191-36.90906-2.767631-8.053951-.649197-16.09814-.883494-23.844576-3.368015-4.483366-1.44239-12.783817-4.236867-13.716122-9.745281-.400257-2.379576 1.259345-5.398588 3.353372-6.511497 1.967116-1.044573 4.522415-1.36185 6.667695-1.845087 4.729866-1.059217 11.341427-1.735261 15.034042-5.227747 3.826847-3.624278-.571099-7.194863-4.080669-8.395633-6.23571-2.130636-13.181633-2.250225-19.688249-2.784715-5.969686-.485678-11.868595-1.503404-17.850484-1.918305-14.892487-1.03481-29.855752-.912781-44.728715-2.259987-5.510855-.500321-11.343868-1.034811-16.549649-3.043417-1.435067-.554014-3.119075-1.303276-4.066025-2.579705-.866409-1.173925-.573539-2.440591-.571098-3.792679.017084-7.1851 8.690945-11.531793 14.218884-14.145666 11.424408-5.396148 24.015418-8.442005 36.318438-11.046116 30.846632-6.540785 62.637773-9.679385 94.138486-10.533592 6.71162-.180604 13.42813-.229415 20.13976-.070777 1.38869.031728 1.38869-2.125755 0-2.157483" fill="#bbdada"/></g><path d="m625.28126 157.496963c-25.992296 8.071035-57.278234 4.915351-84.822747-.217212-27.544512-5.132564-55.091465-12.127298-84.127178-11.155943-24.178937.807836-48.072325 7.158254-71.929104 5.081311-23.632244-2.052537-42.783563-11.995506-65.219918-16.705847-28.232759-5.930636-61.54927-3.577906-86.550686-13.274375-7.931921-3.077586-14.999873-9.376752-9.398717-14.067568 5.884266-4.922672 21.962881-4.266153 23.807968-10.1699433-12.913168-8.7129106-33.082214-12.0467582-52.214008-14.6874779-31.82531-4.3955047-63.98498-8.0051391-96.371625-10.8142595-30.3682762-2.6333979-61.6273682-4.6859351-88.88145009-12.8570344-4.34425233-1.3032757-9.03262802-3.1654468-9.53050862-6.0624286-.5540142-3.2069368 4.30764346-5.8476565 8.98869737-7.5487485 21.61143504-7.8416195 48.65074484-8.5274257 70.46474894-16.1664761 16.124986-5.647528 28.5695604-14.8265915 45.6610204-19.31727932 9.899038-2.59922962 20.747466-3.45587713 31.434815-4.19293567 147.262832-10.19190883 295.558034-3.79267872 442.798901 2.61387317 4.812846.21233143 9.913681.48323706 13.721004 2.20385382 4.368658 1.9744383 6.018497 5.3863848 7.243674 8.5859999 15.509957 40.5528632 2.699294 83.2729714 7.189982 124.9167794" fill="#fde8e2" mask="url(#h)" transform="translate(1089.405139 162.205805)"/><path d="m0 160.829132c178.556092 105.27002 395.19761 119.908686 602.469699 118.786014 163.534253-.885935 326.907428-9.916122 490.124401-20.132437 41.91716-2.626076 84.64947-5.505974 123.655-21.081827-234.421228-1.483879-468.517854-44.899556-687.885512-127.574583-84.354154-31.7887-166.858339-69.4250568-254.17537-91.8394463-87.314591-22.41194898-181.6239158-28.79165436-266.35392027 1.9866412z" fill="#000" mask="url(#i)" transform="translate(218.874659 492.298664)"/><path d="m-7.23757319 7.06838949c26.15337529-12.66422771 57.36853659-6.27964115 84.80322219 3.29967931 27.432245 9.581761 54.827881 22.2948005 83.878238 21.665128 24.1887-.5247271 48.208998-10.370072 72.016965-6.0599879 23.585873 4.2734752 42.529742 21.6407221 64.866033 30.3365485 28.100967 10.9436109 61.458967 8.1466934 86.257815 25.3089307 7.866025 5.4425184 14.799745 16.2763027 9.105845 23.9617239-5.984329 8.075917-22.04586 6.416315-24.012976 16.271422 12.730123 15.092616 32.828392 21.391782 51.899171 26.492617 31.730126 8.488377 63.809257 15.668596 96.130006 21.508931 30.309702 5.481567 61.517542 10.011305 88.598342 24.684139 4.314965 2.340527 8.964291 5.630444 9.406038 10.521389.483237 5.40835-4.427232 9.676944-9.142454 12.371356-21.770074 12.434812-48.816705 12.652025-70.784467 24.737833-16.237253 8.932563-28.869753 23.927556-46.049074 30.883241-9.950291 4.026975-20.815803 5.091073-31.512914 5.962364-147.440995 12.032115-295.575118-3.853694-442.6524655-19.719977-4.8079646-.517405-9.90147845-1.149518-13.67463244-4.175851-4.32472759-3.470521-5.9037901-9.262044-7.06307091-14.682597-14.67283425-68.690439-.98599885-140.048445-4.61759854-210.1934761" fill="#bbdada" mask="url(#j)" transform="translate(0 476.660168)"/><path d="m.00048812 705.283229h1452.63988188z" fill="#fefefe"/></g></svg>