<svg height="60" viewBox="0 0 144 60" width="144" xmlns="http://www.w3.org/2000/svg" xmlns:xlink="http://www.w3.org/1999/xlink"><clipPath id="a"><path d="m68.65 40.55h18.572v18.977h-18.572z"/></clipPath><clipPath id="b"><path d="m20.11 40.71h18.424v18.825h-18.424z"/></clipPath><g fill="#1d1d1b"><path d="m29.239 9.48v16.734h-1.103v-16.734c0-5.443-2.649-8.017-6.253-8.017s-6.252 2.574-6.252 8.017v7.687h-1.103v-7.687c0-5.443-2.648-8.017-6.253-8.017-3.604 0-6.252 2.574-6.252 8.017v16.734h-1.103v-16.734c0-6.178 3.016-9.01 7.355-9.01 3.237 0 5.922 1.691 6.804 5.333.883-3.643 3.568-5.333 6.804-5.333 4.34 0 7.356 2.832 7.356 9.01"/><path d="m49.135 17.019c0-4.708-3.605-8.496-8.35-8.496-4.744 0-8.422 3.788-8.422 8.496 0 4.707 3.789 8.495 8.422 8.495 4.635 0 8.35-3.788 8.35-8.495m-17.875 0c0-5.26 4.267-9.489 9.489-9.489s9.451 4.23 9.451 9.489v9.194h-1.102v-4.965c-1.545 3.052-4.671 5.26-8.35 5.26-5.221 0-9.488-4.23-9.488-9.49"/><path d="m53.323 17.02c0 4.707 3.678 8.495 8.423 8.495 4.744 0 8.349-3.788 8.349-8.495 0-4.708-3.715-8.496-8.35-8.496-4.633 0-8.422 3.788-8.422 8.496m8.386 9.488c-5.222 0-9.489-4.23-9.489-9.488 0-5.26 4.267-9.489 9.489-9.489 3.678 0 6.804 2.207 8.349 5.26v-12.321h1.103v16.55c0 5.259-4.23 9.488-9.452 9.488"/><path d="m91.055 17.019c0-4.708-3.605-8.496-8.35-8.496-4.744 0-8.422 3.788-8.422 8.496 0 4.707 3.789 8.495 8.422 8.495 4.635 0 8.35-3.788 8.35-8.495m-17.875 0c0-5.26 4.267-9.489 9.489-9.489s9.451 4.23 9.451 9.489v9.194h-1.102v-4.965c-1.545 3.052-4.671 5.26-8.35 5.26-5.221 0-9.488-4.23-9.488-9.49"/><path d="m122.639 16.54v9.673h-1.103v-9.673c0-5.443-2.649-8.017-6.253-8.017s-6.252 2.574-6.252 8.017v9.673h-1.103v-9.673c0-5.443-2.648-8.017-6.253-8.017-3.604 0-6.252 2.574-6.252 8.017v9.673h-1.103v-9.673c0-6.178 3.016-9.01 7.355-9.01 3.237 0 5.922 1.691 6.804 5.333.883-3.642 3.568-5.333 6.804-5.333 4.34 0 7.356 2.832 7.356 9.01"/><path d="m125.763 16.146c.479-4.125 3.827-7.623 8.244-7.623 4.416 0 7.581 3.388 8.059 7.623zm8.238-8.616c-5.295 0-9.341 4.23-9.341 9.525 0 5.222 4.046 9.452 9.341 9.452 3.347 0 6.62-1.692 8.422-4.45h-1.397c-1.655 2.17-4.34 3.457-7.025 3.457-4.744 0-8.238-3.752-8.238-8.348h17.47v-.332c-.147-5.369-4.045-9.304-9.232-9.304z"/><path d="m45.043 34.483v14.674h12.652v.993h-12.652v9.084h-1.103v-25.744h15.152v.993z"/><path d="m60.38 49.75c0-6.178 3.016-9.01 7.356-9.01.257 0 .477 0 .735.037v.992c-.258-.036-.478-.036-.735-.036-3.604 0-6.253 2.574-6.253 8.017v9.49h-1.103z"/></g><g clip-path="url(#a)"><path d="m69.754 49.166c.478-4.125 3.827-7.622 8.242-7.622 4.416 0 7.582 3.387 8.059 7.622zm8.237-8.616c-5.295 0-9.341 4.23-9.341 9.525 0 5.222 4.046 9.452 9.341 9.452 3.347 0 6.62-1.692 8.422-4.45h-1.397c-1.655 2.17-4.34 3.456-7.025 3.456-4.744 0-8.238-3.75-8.238-8.348h17.47v-.33c-.147-5.37-4.046-9.305-9.232-9.305z" fill="#1d1d1b"/></g><path d="m105.433 59.233h-1.104v-9.673c0-5.444-3.016-8.018-6.988-8.018s-6.987 2.574-6.987 8.018v9.672h-1.104v-9.672c0-6.179 3.383-9.011 8.09-9.011 4.708 0 8.093 2.832 8.093 9.01z" fill="#1d1d1b"/><path d="m107.45 50.038c0-5.259 4.267-9.488 9.49-9.488a9.434 9.434 0 0 1 7.943 4.302h-1.25c-1.508-2.022-3.899-3.31-6.658-3.31-4.744 0-8.422 3.789-8.422 8.496 0 4.708 3.789 8.495 8.422 8.495 2.796 0 5.26-1.397 6.768-3.493h1.288c-1.693 2.685-4.672 4.487-8.092 4.487-5.222 0-9.489-4.23-9.489-9.489" fill="#1d1d1b"/><path d="m143.233 49.561v9.672h-1.104v-9.672c0-5.443-3.015-8.017-6.988-8.017-3.972 0-6.988 2.574-6.988 7.76v9.93h-1.103v-25.744h1.103v11.144c1.582-3.127 3.9-4.084 6.988-4.084 4.708 0 8.092 2.832 8.092 9.011" fill="#1d1d1b"/><path d="m29.239 27.005-27.006 22.214h21.254v.985h-22.567v-.985l26.97-22.214h-26.97v-.985h28.319z" fill="#1d1d1b"/><g clip-path="url(#b)"><path d="m21.206 49.246c.473-4.085 3.794-7.55 8.171-7.55 4.379 0 7.516 3.356 7.99 7.55zm8.171-8.536c-5.253 0-9.267 4.196-9.267 9.45 0 5.18 4.014 9.375 9.267 9.375 3.32 0 6.567-1.678 8.355-4.415h-1.386c-1.642 2.153-4.305 3.43-6.969 3.43-4.706 0-8.172-3.72-8.172-8.281h17.33v-.33c-.146-5.325-4.014-9.229-9.158-9.229z" fill="#1d1d1b"/></g></svg>